<svg fill="none" height="213" viewBox="0 0 537 213" width="537" xmlns="http://www.w3.org/2000/svg"><path clip-rule="evenodd" d="m521.097 16.2481c-2.444-2.7309-5.997-4.4499-9.951-4.4499h-497.7979c-3.55364 0-6.78237 1.3894-9.17427 3.6537l11.24847-11.24797c2.4346-2.58788 5.8905-4.20390913 9.7239-4.20393h497.7988c4.142 0 7.843 1.88637 10.291 4.84647z" fill="#9cb2ff" fill-rule="evenodd"/><path d="m533.236 4.84668c1.909 2.309 3.057 5.27132 3.057 8.50182v173.5055c0 3.686-1.494 7.023-3.909 9.439l-11.798 11.798c2.415-2.416 3.909-5.753 3.909-9.439v-173.5053c0-3.4185-1.285-6.5369-3.399-8.8984z" fill="#102775"/><path d="m0 25.1467c0-7.372 5.97625-13.3483 13.3483-13.3483l497.7987-.0005c7.372 0 13.348 5.9762 13.348 13.3482v173.5049c0 7.373-5.976 13.349-13.348 13.349h-497.7987c-7.37205 0-13.3483-5.976-13.3483-13.348z" fill="#102775"/><path d="m0 25.3489c0-7.3721 5.97625-13.3483 13.3483-13.3483l497.7987-.0006c7.372 0 13.348 5.9762 13.348 13.3483v173.5057c0 7.372-5.976 13.348-13.348 13.348h-497.7987c-7.37205 0-13.3483-5.976-13.3483-13.348z" fill="#fff"/><path d="m13.3486 13.3906h497.7974c6.605 0 11.959 5.354 11.959 11.958v173.5054c0 6.604-5.354 11.958-11.959 11.958h-497.7974c-6.60396 0-11.95778-5.353-11.95798-11.958v-173.5054c.00014-6.604 5.35398-11.958 11.95798-11.958z" stroke="#102775" stroke-width="2.78089"/><g fill="#ff6752"><path d="m32.8334 90.1627c10.4309 0 12.5496 3.7818 12.5496 12.9663v14.587c0 9.184-2.1187 12.966-12.5496 12.966h-6.628c-1.5755 0-2.0101-.432-2.0101-1.999v-36.5213c0-1.5668.4346-1.999 2.0101-1.999zm-.163 7.5636c-.7606 0-.9779.2161-.9779.9725v23.4472c0 .702.2173.972.9779.972h.5976c3.0423 0 4.4005-1.404 4.4005-4.916v-15.559c0-3.512-1.3582-4.9167-4.4005-4.9167z"/><path d="m49.7471 130.682h-2.5534c-1.5755 0-2.0101-.432-2.0101-1.999v-3.566c0-1.566.4346-1.999 2.0101-1.999h2.6621c1.9014 0 2.7707-.864 2.7707-3.025v-21.6643c0-.7564-.2174-.9725-.9779-.9725h-2.6621c-1.5755 0-2.0101-.4322-2.0101-1.999v-3.2955c0-1.5668.4346-1.999 2.0101-1.999h9.127c1.5755 0 2.0102.4322 2.0102 1.999v26.6343c0 8.698-2.6078 11.886-10.3766 11.886z"/><path d="m69.548 128.683c0 1.567-.4346 1.999-2.0101 1.999h-3.477c-1.5755 0-2.0101-.432-2.0101-1.999v-13.831c0-2.377.1086-3.349.7606-5.51l4.9438-16.478c.6519-2.2691 1.1952-2.7013 4.0202-2.7013h1.9558c2.825 0 3.3683.4322 4.0202 2.7013l4.9438 16.478c.652 2.107.7606 3.133.7606 5.51v13.831c0 1.567-.4346 1.999-2.0101 1.999h-3.477c-1.5755 0-2.0101-.432-2.0101-1.999v-7.131c0-.757-.2173-.973-.9779-.973h-4.4548c-.7606 0-.9779.216-.9779.973zm5.5957-15.667c.5976 0 .9236-.217.9236-.703 0-.27-.0544-.54-.1087-.81l-2.499-10.427c-.1087-.54-.2174-.648-.7063-.648-.489 0-.5976.108-.7063.648l-2.499 10.427c-.0544.27-.1087.54-.1087.81 0 .486.326.703.9236.703z"/><path d="m99.3526 103.507c.2717.486.3803.594.7064.594.326 0 .435-.162.435-.54v-11.3993c0-1.5668.434-1.999 2.01-1.999h3.314c1.575 0 2.01.4322 2.01 1.999v36.5213c0 1.567-.435 1.999-2.01 1.999h-3.314c-1.576 0-2.01-.432-2.01-1.999v-7.401c0-2.54-.381-3.458-1.3043-5.187l-5.0525-9.346c-.2716-.487-.3803-.595-.7063-.595-.3259 0-.4346.162-.4346.541v21.988c0 1.567-.4346 1.999-2.0101 1.999h-3.314c-1.5755 0-2.0101-.432-2.0101-1.999v-36.5213c0-1.5668.4346-1.999 2.0101-1.999h2.1188c2.0101 0 2.7707.3242 3.9116 2.5392z"/><path d="m124.833 116.257c0-.756-.217-.972-.978-.972h-.652c-1.575 0-2.01-.432-2.01-1.999v-3.566c0-1.566.435-1.999 2.01-1.999h6.9c1.575 0 2.01.433 2.01 1.999v9.617c0 8.698-2.608 11.886-10.485 11.886-7.878 0-10.485-3.188-10.485-11.886v-17.829c0-8.6977 2.607-11.8852 10.485-11.8852 7.877 0 10.376 3.1875 10.376 11.8852v.271c0 1.566-.434 1.999-2.01 1.999h-3.477c-1.575 0-2.01-.433-2.01-1.999v-1.567c0-2.1612-.923-3.0256-2.825-3.0256-1.901 0-2.825.8644-2.825 3.0256v20.422c0 2.161.978 3.025 2.988 3.025 2.065 0 2.988-.864 2.988-3.025z"/><path d="m155.644 118.797c0 9.13-2.607 12.426-10.485 12.426-7.877 0-10.485-3.296-10.485-12.426v-16.748c0-9.0766 2.608-12.4262 10.485-12.4262 7.878 0 10.485 3.3496 10.485 12.4262zm-13.256 1.837c0 2.161.87 3.025 2.771 3.025s2.771-.864 2.771-3.025v-20.152c0-2.3772-.87-3.2956-2.771-3.2956s-2.771.9184-2.771 3.2956z"/><path d="m179.012 117.716v1.621c0 8.698-2.499 11.886-10.376 11.886-7.878 0-10.486-3.188-10.486-11.886v-17.829c0-8.6977 2.608-11.8852 10.486-11.8852 7.877 0 10.376 3.1875 10.376 11.8852v1.621c0 1.567-.434 1.999-2.01 1.999h-3.477c-1.575 0-2.01-.432-2.01-1.999v-2.917c0-2.1612-.924-3.0256-2.825-3.0256-1.902 0-2.825.8644-2.825 3.0256v20.422c0 2.161.923 3.025 2.825 3.025 1.901 0 2.825-.864 2.825-3.025v-2.918c0-1.567.435-1.999 2.01-1.999h3.477c1.576 0 2.01.432 2.01 1.999z"/><path d="m202.642 118.797c0 9.13-2.607 12.426-10.485 12.426-7.877 0-10.485-3.296-10.485-12.426v-16.748c0-9.0766 2.608-12.4262 10.485-12.4262 7.878 0 10.485 3.3496 10.485 12.4262zm-13.256 1.837c0 2.161.87 3.025 2.771 3.025 1.902 0 2.771-.864 2.771-3.025v-20.152c0-2.3772-.869-3.2956-2.771-3.2956-1.901 0-2.771.9184-2.771 3.2956z"/><path d="m218.452 103.507c.272.486.381.594.707.594.325 0 .434-.162.434-.54v-11.3993c0-1.5668.435-1.999 2.01-1.999h3.314c1.576 0 2.01.4322 2.01 1.999v36.5213c0 1.567-.434 1.999-2.01 1.999h-3.314c-1.575 0-2.01-.432-2.01-1.999v-7.401c0-2.54-.38-3.458-1.304-5.187l-5.052-9.346c-.272-.487-.38-.595-.706-.595s-.435.162-.435.541v21.988c0 1.567-.435 1.999-2.01 1.999h-3.314c-1.576 0-2.01-.432-2.01-1.999v-36.5213c0-1.5668.434-1.999 2.01-1.999h2.119c2.01 0 2.77.3242 3.911 2.5392z"/><path d="m271.292 104.588 6.954 6.267c3.64 3.241 4.455 5.186 4.455 8.806v.973c0 6.807-2.608 10.589-10.485 10.589-7.878 0-10.486-3.188-10.486-11.886v-1.081c0-1.566.435-1.999 2.011-1.999h3.694c1.575 0 2.01.433 2.01 1.999v2.378c0 2.161.869 3.025 2.771 3.025 1.901 0 2.77-.81 2.77-2.755v-1.027c0-1.513-.326-2.269-2.336-4.052l-6.519-5.78c-3.64-3.188-4.401-5.025-4.401-8.645v-1.188c0-6.8074 2.608-10.5892 10.486-10.5892 7.877 0 10.485 3.1875 10.485 11.8852v1.081c0 1.567-.435 1.999-2.01 1.999h-3.695c-1.575 0-2.01-.432-2.01-1.999v-2.377c0-2.1612-.869-3.0256-2.77-3.0256-1.902 0-2.771.8104-2.771 2.7553v.9183c0 1.567.326 2.323 1.847 3.728z"/><path d="m252.065 92.1617c0-1.5668.435-1.999 2.01-1.999h3.477c1.576 0 2.01.4322 2.01 1.999v27.1753c0 8.698-2.608 11.885-10.485 11.885s-10.485-3.187-10.485-11.885v-27.1753c0-1.5668.434-1.999 2.01-1.999h3.477c1.575 0 2.01.4322 2.01 1.999v28.4713c0 2.161.924 3.026 2.988 3.026 2.01 0 2.988-.865 2.988-3.026z"/><path d="m153.875 166.339v1.621c0 8.698-2.499 11.886-10.376 11.886-7.878 0-10.485-3.188-10.485-11.886v-17.829c0-8.698 2.607-11.885 10.485-11.885 7.877 0 10.376 3.187 10.376 11.885v1.621c0 1.567-.434 1.999-2.01 1.999h-3.477c-1.575 0-2.01-.432-2.01-1.999v-2.917c0-2.161-.923-3.026-2.825-3.026-1.901 0-2.825.865-2.825 3.026v20.421c0 2.161.924 3.026 2.825 3.026 1.902 0 2.825-.865 2.825-3.026v-2.917c0-1.567.435-1.999 2.01-1.999h3.477c1.576 0 2.01.432 2.01 1.999z"/><path d="m170.32 177.46v-14.587c0-.756-.217-.972-.978-.972h-4.455c-.76 0-.978.216-.978.972v14.587c0 1.567-.434 1.999-2.01 1.999h-3.477c-1.575 0-2.01-.432-2.01-1.999v-36.521c0-1.567.435-1.999 2.01-1.999h3.477c1.576 0 2.01.432 2.01 1.999v12.426c0 .702.218.972.978.972h4.455c.761 0 .978-.27.978-.972v-12.426c0-1.567.435-1.999 2.01-1.999h3.477c1.576 0 2.01.432 2.01 1.999v36.521c0 1.567-.434 1.999-2.01 1.999h-3.477c-1.575 0-2.01-.432-2.01-1.999z"/><path d="m189.191 140.939v36.521c0 1.567-.435 1.999-2.011 1.999h-3.477c-1.575 0-2.01-.432-2.01-1.999v-36.521c0-1.567.435-1.999 2.01-1.999h3.477c1.576 0 2.011.432 2.011 1.999z"/><path d="m213.182 166.493v1.621c0 8.698-2.499 11.886-10.376 11.886-7.878 0-10.486-3.188-10.486-11.886v-17.828c0-8.698 2.608-11.886 10.486-11.886 7.877 0 10.376 3.188 10.376 11.886v1.621c0 1.566-.435 1.999-2.01 1.999h-3.477c-1.575 0-2.01-.433-2.01-1.999v-2.918c0-2.161-.924-3.025-2.825-3.025-1.902 0-2.825.864-2.825 3.025v20.422c0 2.161.923 3.025 2.825 3.025 1.901 0 2.825-.864 2.825-3.025v-2.918c0-1.566.435-1.998 2.01-1.998h3.477c1.575 0 2.01.432 2.01 1.998z"/><path d="m222.454 177.306c0 1.567-.434 1.999-2.01 1.999h-3.477c-1.575 0-2.01-.432-2.01-1.999v-13.831c0-2.377.109-3.349.761-5.51l4.943-16.478c.652-2.269 1.196-2.701 4.021-2.701h1.955c2.825 0 3.369.432 4.021 2.701l4.943 16.478c.652 2.107.761 3.133.761 5.51v13.831c0 1.567-.435 1.999-2.01 1.999h-3.477c-1.576 0-2.01-.432-2.01-1.999v-7.131c0-.757-.217-.973-.978-.973h-4.455c-.76 0-.978.216-.978.973zm5.596-15.667c.598 0 .924-.217.924-.703 0-.27-.055-.54-.109-.81l-2.499-10.427c-.109-.54-.218-.648-.706-.648-.489 0-.598.108-.707.648l-2.499 10.427c-.054.27-.108.54-.108.81 0 .486.326.703.923.703z"/><path d="m252.189 164.88c0-.756-.218-.972-.978-.972h-.652c-1.576 0-2.01-.432-2.01-1.999v-3.566c0-1.566.434-1.999 2.01-1.999h6.899c1.576 0 2.01.433 2.01 1.999v9.617c0 8.698-2.607 11.886-10.485 11.886-7.877 0-10.485-3.188-10.485-11.886v-17.829c0-8.698 2.608-11.885 10.485-11.885 7.878 0 10.377 3.187 10.377 11.885v.271c0 1.566-.435 1.998-2.01 1.998h-3.477c-1.576 0-2.01-.432-2.01-1.998v-1.567c0-2.161-.924-3.026-2.825-3.026-1.902 0-2.825.865-2.825 3.026v20.421c0 2.161.977 3.026 2.988 3.026 2.064 0 2.988-.865 2.988-3.026z"/><path d="m283 167.42c0 9.13-2.608 12.426-10.486 12.426-7.877 0-10.485-3.296-10.485-12.426v-16.748c0-9.077 2.608-12.426 10.485-12.426 7.878 0 10.486 3.349 10.486 12.426zm-13.256 1.836c0 2.161.869 3.026 2.77 3.026 1.902 0 2.771-.865 2.771-3.026v-20.151c0-2.377-.869-3.296-2.771-3.296-1.901 0-2.77.919-2.77 3.296z"/><path d="m99.4723 57.4237c0 .1621.0543.2161.163.2161s.2173-.054.3807-.1621c1.032-.7023 2.173-1.1345 4.454-1.1345 5.162 0 8.258 2.9174 8.258 10.589v4.5922c0 7.8337-2.879 11.0753-10.485 11.0753-7.8775 0-10.4852-3.2956-10.4852-12.426v-16.7479c0-9.1304 2.6077-12.4259 10.3762-12.4259 7.498 0 10.377 3.2415 10.377 11.0752v.2161c0 1.5668-.435 1.999-2.01 1.999h-3.369c-1.575 0-2.01-.4322-2.01-1.999v-1.2425c0-1.7829-.923-2.4852-2.825-2.4852-1.955 0-2.8247.8644-2.8247 3.0254zm5.5417 14.5869v-5.0784c0-2.161-.87-3.0254-2.771-3.0254s-2.7707.8644-2.7707 3.0254v5.0784c0 2.161.8697 3.0255 2.7707 3.0255s2.771-.8645 2.771-3.0255z"/><path d="m66.781 70.1737c0 9.1304-2.6078 12.426-10.4852 12.426-7.8775 0-10.4853-3.2956-10.4853-12.426v-16.7479c0-9.0763 2.6078-12.4259 10.4853-12.4259 7.8774 0 10.4852 3.3496 10.4852 12.4259zm-7.7145-18.5848c0-2.161-.8693-3.0254-2.7707-3.0254-1.9015 0-2.7707.8644-2.7707 3.0254v20.4217c0 2.161.8692 3.0255 2.7707 3.0255 1.9014 0 2.7707-.8645 2.7707-3.0255z"/><path d="m32.5073 73.5233c-.4346.7024-.2716 1.2426.6519 1.2426h8.4751c1.5755 0 2.0101.4322 2.0101 1.999v3.2955c0 1.5668-.4346 1.999-2.0101 1.999h-16.1896c-1.5755 0-2.0101-.4322-2.0101-1.999v-3.8898c0-1.4587.1087-2.161.7063-3.0795l9.5073-14.4789c1.4668-2.215 2.2817-4.9163 2.2817-6.8612 0-2.3771-.7605-3.1875-2.7707-3.1875-1.9014 0-2.7707.8644-2.7707 3.0254v2.9174c0 1.5667-.4346 1.9989-2.0101 1.9989h-3.3683c-1.5755 0-2.0101-.4322-2.0101-1.9989v-1.6208c0-8.428 2.6077-11.8856 10.1592-11.8856 7.6602 0 10.4852 3.5116 10.4852 10.535 0 3.0254-1.0865 6.321-3.3683 9.8327z"/><path d="m78.4507 73.5231c-.4347.7023-.2717 1.2426.6519 1.2426h8.4751c1.5755 0 2.0101.4322 2.0101 1.9989v3.2956c0 1.5667-.4346 1.9989-2.0101 1.9989h-16.1896c-1.5755 0-2.0101-.4322-2.0101-1.9989v-3.8898c0-1.4587.1086-2.1611.7062-3.0795l9.5073-14.4789c1.4669-2.215 2.2818-4.9163 2.2818-6.8613 0-2.3771-.7606-3.1875-2.7707-3.1875-1.9015 0-2.7707.8644-2.7707 3.0255v2.9174c0 1.5667-.4346 1.9989-2.0101 1.9989h-3.3683c-1.5755 0-2.0101-.4322-2.0101-1.9989v-1.6208c0-8.428 2.6077-11.8857 10.1592-11.8857 7.6602 0 10.4852 3.5117 10.4852 10.535 0 3.0255-1.0865 6.321-3.3683 9.8327z"/><path d="m409.72 124.386v-33.2074c0-3.6913-2.992-6.6837-6.683-6.6837h-13.353c-3.692 0-6.684 2.9924-6.684 6.6837v72.1374c0 3.691 2.992 6.684 6.684 6.684h72.137c3.691 0 6.684-2.993 6.684-6.684v-13.353c0-3.691-2.993-6.684-6.684-6.684h-33.207l68.66-68.6593c2.61-2.6102 2.61-6.8421 0-9.4522l-9.442-9.4416c-2.61-2.6102-6.842-2.6102-9.452 0z" fill-opacity=".75"/></g></svg>